<?xml version="1.0" standalone="no"?>
<!DOCTYPE svg PUBLIC "-//W3C//DTD SVG 20010904//EN"
 "http://www.w3.org/TR/2001/REC-SVG-20010904/DTD/svg10.dtd">
<svg version="1.0" xmlns="http://www.w3.org/2000/svg"
 width="200.000000pt" height="67.000000pt" viewBox="0 0 200.000000 67.000000"
 preserveAspectRatio="xMidYMid meet">
<metadata>
Created by potrace 1.11, written by Peter Selinger 2001-2013
</metadata>
<g transform="translate(0.000000,67.000000) scale(0.100000,-0.100000)"
fill="#000000" stroke="none">
<path d="M340 634 c-22 -38 -139 -75 -200 -64 -42 8 -47 7 -68 -18 -13 -15
-30 -40 -38 -55 -12 -22 -5 -18 29 18 42 43 48 46 79 40 48 -11 48 -11 48 -70
0 -49 -4 -58 -45 -106 -25 -29 -45 -57 -45 -62 0 -9 -19 -7 -67 8 -22 7 -23 5
-23 -49 0 -64 9 -87 53 -133 30 -32 30 -32 56 -13 25 18 29 18 109 1 70 -14
88 -23 114 -50 l30 -32 -23 -25 c-29 -31 -15 -31 23 1 16 14 36 25 44 25 8 0
32 9 54 20 22 11 47 20 56 20 30 0 -6 -31 -71 -61 l-60 -28 125 0 c209 -1 384
35 324 67 -34 18 -127 32 -221 34 l-92 2 6 50 c4 35 14 61 32 82 15 16 33 44
40 62 9 21 20 32 34 32 18 0 19 4 13 47 -7 51 -50 153 -64 153 -5 0 -12 -10
-15 -21 -4 -16 -10 -20 -24 -14 -10 3 -42 12 -72 18 -40 9 -63 21 -92 50 -51
52 -49 76 6 90 14 3 11 5 -10 6 -22 1 -34 -6 -45 -25z m203 -153 c27 -11 66
-74 69 -113 2 -27 -23 -81 -55 -122 -22 -27 -26 -28 -79 -22 l-55 7 -32 85
-32 85 37 50 c37 50 38 51 79 46 23 -4 53 -11 68 -16z m-254 -77 c49 -8 70
-33 98 -122 l17 -52 -49 -50 c-53 -54 -53 -54 -160 -24 -50 13 -51 15 -73 75
l-22 61 22 32 c42 62 82 97 103 92 11 -3 40 -8 64 -12z"/>
</g>
</svg>
